<?xml version="1.0" standalone="no"?>
<!DOCTYPE svg PUBLIC "-//W3C//DTD SVG 20010904//EN"
 "http://www.w3.org/TR/2001/REC-SVG-20010904/DTD/svg10.dtd">
<svg version="1.0" xmlns="http://www.w3.org/2000/svg"
 width="400.000000pt" height="400.000000pt" viewBox="0 0 400.000000 400.000000"
 preserveAspectRatio="xMidYMid meet">
<metadata>
Created by potrace 1.14, written by Peter Selinger 2001-2017
</metadata>
<g transform="translate(0.000000,400.000000) scale(0.100000,-0.100000)"
fill="#000000" stroke="none">
<path d="M0 2000 l0 -2000 2000 0 2000 0 0 2000 0 2000 -2000 0 -2000 0 0
-2000z m1390 430 l0 -120 50 0 51 0 -3 -72 -3 -73 -45 -1 -45 -1 -3 -257 -2
-257 -83 3 -82 3 -5 254 -5 255 -35 0 -35 1 -3 73 -3 72 41 0 40 0 0 113 c0
63 3 117 7 120 3 4 42 7 85 7 l78 0 0 -120z m750 -330 l0 -450 -80 0 -80 0 0
450 0 450 80 0 80 0 0 -450z m-1243 205 c58 -17 122 -58 154 -99 22 -28 22
-29 3 -43 -10 -8 -40 -25 -66 -39 l-47 -24 -48 33 c-43 28 -56 32 -118 32 -81
0 -120 -18 -168 -77 -56 -70 -44 -195 23 -252 70 -58 184 -62 264 -8 l48 32
58 -37 c33 -21 59 -43 59 -48 1 -17 -70 -81 -114 -103 -63 -31 -163 -44 -242
-32 -131 21 -218 84 -272 199 -22 47 -26 70 -26 141 0 73 5 93 29 143 80 165
269 240 463 182z m991 9 c8 -2 12 -27 12 -79 0 -68 -2 -76 -17 -71 -61 17 -85
17 -109 1 -47 -31 -54 -67 -54 -284 0 -110 -3 -206 -6 -215 -5 -13 -22 -16
-85 -16 l-79 0 0 330 0 330 70 0 70 0 0 -32 0 -32 29 28 c48 46 106 60 169 40z
m1567 -6 c54 -13 112 -48 155 -93 34 -36 35 -37 15 -51 -11 -9 -41 -27 -68
-40 l-48 -25 -44 31 c-139 95 -325 5 -325 -157 0 -107 83 -183 200 -183 52 0
150 40 150 60 0 6 6 10 13 10 15 0 127 -79 127 -90 0 -4 -15 -22 -32 -40 -125
-122 -378 -127 -512 -9 -112 98 -147 265 -84 400 75 162 255 237 453 187z
m-823 -120 l3 -123 123 -3 122 -3 0 -79 0 -79 -122 -3 -123 -3 -3 -122 -3
-123 -79 0 -79 0 -3 123 -3 122 -120 2 -120 1 -3 81 -3 80 123 3 123 3 3 123
3 122 79 0 79 0 3 -122z"/>
</g>
</svg>
